HIERARCHY
ROOT Hips
{
 OFFSET 0.000000 0.000000 0.000000
 CHANNELS 6 Xposition Yposition Zposition Yrotation Xrotation Zrotation
 JOINT Chest
 {
  OFFSET 0.000000 9.585900 0.002600
  CHANNELS 3 Yrotation Xrotation Zrotation
  JOINT Chest2
  {
   OFFSET 0.000000 9.601200 -0.005300
   CHANNELS 3 Yrotation Xrotation Zrotation
   JOINT Chest3
   {
    OFFSET 0.000000 9.561800 0.000000
    CHANNELS 3 Yrotation Xrotation Zrotation
    JOINT Chest4
    {
     OFFSET 0.000000 9.552100 0.000000
     CHANNELS 3 Yrotation Xrotation Zrotation
     JOINT Neck
     {
      OFFSET 0.000000 14.453000 0.000000
      CHANNELS 3 Yrotation Xrotation Zrotation
      JOINT Head
      {
       OFFSET 0.000000 8.936500 -0.011300
       CHANNELS 3 Yrotation Xrotation Zrotation
       End Site
       {
        OFFSET 0.000000 17.073600 -0.006000
       }
      }
     }
     JOINT RightCollar
     {
      OFFSET -2.921100 9.558500 0.000000
      CHANNELS 3 Yrotation Xrotation Zrotation
      JOINT RightShoulder
      {
       OFFSET -13.519700 0.000000 0.000000
       CHANNELS 3 Yrotation Xrotation Zrotation
       JOINT RightElbow
       {
        OFFSET 0.000000 -29.696600 0.000000
        CHANNELS 3 Yrotation Xrotation Zrotation
        JOINT RightWrist
        {
         OFFSET 0.000000 -24.004700 0.000000
         CHANNELS 3 Yrotation Xrotation Zrotation
         End Site
         {
          OFFSET 0.000000 -17.728500 0.000000
         }
        }
       }
      }
     }
     JOINT LeftCollar
     {
      OFFSET 2.921100 9.558500 0.000000
      CHANNELS 3 Yrotation Xrotation Zrotation
      JOINT LeftShoulder
      {
       OFFSET 13.519700 0.000000 0.000000
       CHANNELS 3 Yrotation Xrotation Zrotation
       JOINT LeftElbow
       {
        OFFSET 0.000000 -29.696600 0.000000
        CHANNELS 3 Yrotation Xrotation Zrotation
        JOINT LeftWrist
        {
         OFFSET 0.000000 -24.004700 0.000000
         CHANNELS 3 Yrotation Xrotation Zrotation
         End Site
         {
          OFFSET 0.000000 -17.728500 0.000000
         }
        }
       }
      }
     }
    }
   }
  }
 }
 JOINT RightHip
 {
  OFFSET -7.771700 -0.012900 -0.001300
  CHANNELS 3 Yrotation Xrotation Zrotation
  JOINT RightKnee
  {
   OFFSET 0.000000 -40.869800 0.001200
   CHANNELS 3 Yrotation Xrotation Zrotation
   JOINT RightAnkle
   {
    OFFSET 0.000000 -39.717900 0.002100
    CHANNELS 3 Yrotation Xrotation Zrotation
    JOINT RightToe
    {
     OFFSET 0.000000 -4.965400 11.033500
     CHANNELS 3 Yrotation Xrotation Zrotation
     End Site
     {
      OFFSET 0.000000 -1.423100 5.872300
     }
    }
   }
  }
 }
 JOINT LeftHip
 {
  OFFSET 7.771700 -0.012900 -0.001300
  CHANNELS 3 Yrotation Xrotation Zrotation
  JOINT LeftKnee
  {
   OFFSET 0.000000 -40.869800 0.001200
   CHANNELS 3 Yrotation Xrotation Zrotation
   JOINT LeftAnkle
   {
    OFFSET 0.000000 -39.717900 0.002100
    CHANNELS 3 Yrotation Xrotation Zrotation
    JOINT LeftToe
    {
     OFFSET 0.000000 -4.965400 11.033500
     CHANNELS 3 Yrotation Xrotation Zrotation
     End Site
     {
      OFFSET 0.000000 -1.423100 5.872300
     }
    }
   }
  }
 }
}
MOTION
Frames: 12
Frame Time: 0.008333
0.000000 85.388000 0.000000 0.000000 -5.767877 0.000000 0.000000 11.653817 0.000000 0.000000 -5.885947 0.000000 0.000000 -0.000000 0.000000 0.000000 -0.000000 0.000000 0.000000 12.528835 0.000000 0.000000 0.711642 0.000000 0.000000 -0.000000 0.000000 0.000000 0.000000 -90.000000 0.000000 -2.309062 0.000000 0.000000 2.309062 0.000000 0.000000 -0.000000 0.000000 0.000000 -0.000000 90.000000 0.000000 -2.309062 0.000000 0.000000 2.309062 0.000000 0.000000 8.520406 0.000000 0.000000 1.905762 0.000000 -0.000000 -4.658285 0.000000 0.000000 -0.000000 0.000000 0.000000 8.520406 0.000000 0.000000 1.905762 0.000000 -0.000000 -4.658285 0.000000 0.000000 -0.000000 0.000000
-43.299529 62.047955 13.107223 178.433978 -50.518840 -1.035150 4.148788 27.221734 0.619920 0.638166 4.700121 0.058844 1.003791 7.457048 0.148931 3.150875 22.031962 0.804744 -0.917077 16.843315 1.804995 -2.321278 -4.498181 3.576288 4.905177 6.255646 4.446372 -1.892587 -22.353519 -11.367070 -138.257748 -49.596097 165.232883 12.732125 -7.225430 -18.397744 -8.992126 1.451246 1.165418 -11.084802 -17.353543 16.814740 143.808373 -64.893263 -160.662657 12.959459 -16.215245 22.508011 2.628076 -16.350291 -7.310444 -0.644520 61.873827 -4.647091 1.482554 -9.363637 10.403555 0.177778 -0.493760 0.063458 -4.033110 -13.668813 1.465678 25.852799 76.529821 26.288872 0.370963 -11.805738 -3.506780 0.256361 0.666249 0.121707
-43.299524 62.047437 13.105388 178.424191 -50.501125 -1.021383 4.123081 27.244918 0.653279 0.633715 4.701263 0.063842 0.996807 7.458679 0.156592 3.139806 22.011421 0.766139 -0.935164 16.860952 1.794765 -2.349411 -4.496281 3.489609 4.914808 6.280941 4.491607 -1.748223 -22.235798 -11.391900 -138.138429 -49.696037 165.176942 12.728264 -7.204351 -18.382107 -9.000903 1.497906 1.164528 -11.102111 -17.166420 16.821975 143.647128 -64.931000 -160.590772 12.932956 -16.182399 22.481673 2.641849 -16.371742 -7.315506 -0.652286 61.883259 -4.655880 1.483924 -9.361895 10.407390 0.175603 -0.496185 0.065196 -4.021112 -13.686344 1.467450 25.865462 76.529802 26.297620 0.360793 -11.807050 -3.503044 0.254934 0.665265 0.122140
-43.300888 62.047551 13.102685 178.423872 -50.485822 -1.005838 4.092706 27.263198 0.664222 0.630791 4.702057 0.068844 0.990804 7.458926 0.161181 3.119411 22.037321 0.843554 -0.966312 16.821371 1.662721 -2.362022 -4.494716 3.447875 4.925139 6.275797 4.431289 -1.608976 -22.122430 -11.408479 -138.015783 -49.801672 165.122502 12.723800 -7.184688 -18.368920 -8.994118 1.456756 1.051410 -11.109908 -16.955067 16.825666 143.496285 -64.962728 -160.533148 12.909333 -16.150609 22.462795 2.648001 -16.387911 -7.327117 -0.639646 61.893594 -4.654942 1.476168 -9.370093 10.415076 0.169028 -0.492447 0.066624 -4.015712 -13.701721 1.455619 25.867307 76.529165 26.297587 0.357978 -11.805005 -3.502310 0.254640 0.662449 0.122151
-43.301597 62.045794 13.101436 178.409270 -50.454116 -0.982887 4.070426 27.264474 0.675463 0.627537 4.702042 0.072425 0.985889 7.458998 0.166714 3.109766 22.031968 0.840576 -0.980386 16.815183 1.618522 -2.372704 -4.492669 3.407606 4.931378 6.276672 4.413820 -1.488990 -21.993789 -11.373521 -137.888938 -49.911712 165.065601 12.720479 -7.165565 -18.354758 -8.999771 1.513530 1.048837 -11.079172 -16.819208 16.794093 143.331483 -64.986149 -160.473345 12.887730 -16.114896 22.448927 2.672308 -16.423738 -7.334480 -0.645066 61.905248 -4.664009 1.460933 -9.372750 10.421727 0.180457 -0.484927 0.073496 -3.998216 -13.732517 1.451116 25.838168 76.530213 26.269163 0.356124 -11.810432 -3.500497 0.256585 0.667383 0.122993
-43.300813 62.041367 13.102553 178.368247 -50.399900 -0.948467 4.067375 27.242098 0.693622 0.618960 4.709398 0.086330 0.985084 7.450778 0.160556 3.095082 22.039261 0.873525 -1.003816 16.837070 1.585282 -2.390031 -4.511135 3.303899 4.948677 6.291187 4.415822 -1.357482 -21.892058 -11.396111 -137.756086 -50.022693 165.000428 12.724462 -7.147510 -18.333748 -9.001000 1.552017 1.011203 -11.022394 -16.698215 16.748196 143.142776 -65.000554 -160.405246 12.863856 -16.076086 22.435790 2.702739 -16.486371 -7.336499 -0.635677 61.914753 -4.660414 1.454957 -9.379584 10.426627 0.176553 -0.478054 0.073088 -3.966663 -13.787232 1.464792 25.795965 76.537017 26.227142 0.337990 -11.819707 -3.502278 0.272572 0.672961 0.130122
-43.301268 62.040430 13.100911 178.354212 -50.371345 -0.926468 4.051116 27.237516 0.697936 0.612172 4.715844 0.097944 0.980407 7.449484 0.165191 3.079127 22.045140 0.903495 -1.019332 16.842774 1.537582 -2.416555 -4.472202 3.197349 4.970556 6.303421 4.420640 -1.230214 -21.787418 -11.413309 -137.623132 -50.135637 164.928283 12.733607 -7.133922 -18.300628 -9.002140 1.574683 0.965463 -10.953622 -16.568382 16.698356 142.942886 -65.007730 -160.330106 12.838000 -16.037744 22.422006 2.716794 -16.516271 -7.347332 -0.634790 61.920503 -4.662890 1.455730 -9.388344 10.420977 0.173868 -0.470956 0.081956 -3.954387 -13.815603 1.460178 25.796222 76.536132 26.223121 0.337244 -11.818154 -3.498537 0.268288 0.671206 0.127995
-43.301038 62.041494 13.097962 178.346849 -50.357255 -0.912714 4.045215 27.231467 0.694212 0.598237 4.735085 0.126320 0.975826 7.447278 0.169295 3.067510 22.043292 0.914568 -1.028491 16.848889 1.503765 -2.421711 -4.461656 3.137701 4.989123 6.315548 4.430081 -1.104480 -21.677240 -11.408717 -137.500104 -50.254255 164.851665 12.744166 -7.128182 -18.249513 -9.009395 1.609606 0.939078 -10.878215 -16.448191 16.637079 142.755423 -65.013733 -160.260724 12.814352 -16.001160 22.408015 2.728327 -16.529795 -7.354244 -0.639133 61.925660 -4.667343 1.453781 -9.390482 10.419835 0.174790 -0.471410 0.085086 -3.946214 -13.828459 1.458946 25.793443 76.538011 26.212561 0.343793 -11.816409 -3.488010 0.255547 0.666953 0.122058
-43.301698 62.039909 13.097537 178.327585 -50.322490 -0.883866 4.028630 27.227321 0.700800 0.596880 4.728250 0.127145 0.971564 7.444134 0.173153 3.056779 22.040205 0.924977 -1.035638 16.856980 1.473871 -2.424426 -4.447248 3.084605 5.009302 6.332589 4.441292 -0.985163 -21.572725 -11.397020 -137.383400 -50.379482 164.773953 12.758104 -7.130447 -18.186393 -9.010141 1.618866 0.897860 -10.811474 -16.303152 16.573235 142.590280 -65.021906 -160.205636 12.790809 -15.964415 22.394405 2.751058 -16.567849 -7.363100 -0.638408 61.933138 -4.677995 1.445326 -9.392426 10.431384 0.177902 -0.471438 0.084574 -3.927324 -13.863316 1.456485 25.779493 76.537895 26.192225 0.334958 -11.817325 -3.480016 0.255922 0.667684 0.121765
-43.301031 62.039062 13.096974 178.307106 -50.293474 -0.860743 4.018329 27.223897 0.715119 0.595934 4.720256 0.127446 0.967839 7.440520 0.177023 3.047798 22.036330 0.935488 -1.041597 16.866923 1.447977 -2.427928 -4.447220 3.043847 5.024931 6.354558 4.453153 -0.875901 -21.472264 -11.373490 -137.273685 -50.510478 164.703827 12.773013 -7.135868 -18.119869 -9.012741 1.635388 0.859103 -10.745164 -16.165588 16.498210 142.441452 -65.028538 -160.156818 12.763692 -15.923665 22.378526 2.767648 -16.599873 -7.366344 -0.636451 61.938374 -4.683560 1.437005 -9.392492 10.435802 0.174427 -0.471716 0.083637 -3.910248 -13.891193 1.464325 25.742905 76.542294 26.147193 0.327804 -11.820054 -3.475953 0.261082 0.669429 0.122504
-43.300190 62.038069 13.096920 178.291657 -50.264031 -0.841370 3.999311 27.221663 0.739145 0.599634 4.705958 0.114531 0.964273 7.436650 0.180785 3.039371 22.032102 0.945924 -1.045653 16.878119 1.425321 -2.427017 -4.417937 2.999141 5.035487 6.380853 4.466214 -0.770211 -21.372437 -11.340079 -137.187099 -50.645839 164.653711 12.785827 -7.139263 -18.052045 -9.025659 1.691336 0.835028 -10.668760 -16.069884 16.405528 142.307790 -65.033153 -160.110558 12.736121 -15.877996 22.354144 2.780343 -16.634118 -7.368899 -0.636442 61.945454 -4.691146 1.428693 -9.386026 10.435103 0.180928 -0.474748 0.086142 -3.898606 -13.920361 1.472851 25.718029 76.542232 26.114044 0.313142 -11.815739 -3.480196 0.267371 0.667277 0.131637
-43.299595 62.035715 13.098320 178.267303 -50.225265 -0.812991 4.000879 27.190377 0.737975 0.589253 4.709072 0.130682 0.960346 7.432924 0.184319 3.029670 22.028240 0.955566 -1.046557 16.888708 1.404140 -2.419797 -4.390307 2.958396 5.048520 6.408483 4.478605 -0.668733 -21.273508 -11.298198 -137.126799 -50.782942 164.627705 12.804308 -7.135852 -17.989655 -9.035823 1.748270 0.814469 -10.591694 -15.981235 16.297682 142.181379 -65.037094 -160.063110 12.712151 -15.829763 22.314632 2.799569 -16.679361 -7.379940 -0.633825 61.952005 -4.693350 1.438938 -9.381841 10.436448 0.177010 -0.476599 0.085612 -3.885566 -13.959540 1.482270 25.677640 76.544637 26.061493 0.293816 -11.813212 -3.479385 0.281152 0.667360 0.136721
